<svg xmlns="http://www.w3.org/2000/svg" viewBox="0 0 32 32" aria-hidden="true">
  <path fill="#25D366" d="M16.04 3C9.41 3 4.03 8.27 4.03 14.77c0 2.39.74 4.61 2.01 6.45L4 29l7.99-2.06c1.78.98 3.84 1.55 6.05 1.55C24.66 28.49 30 23.22 30 16.72 30 10.22 22.67 3 16.04 3z"/>
  <path fill="#FFFFFF" d="M23.4 19.06c-.1-.17-.37-.28-.78-.48-.41-.2-2.42-1.17-2.8-1.31-.38-.14-.65-.2-.92.2-.27.4-1.06 1.31-1.3 1.58-.24.27-.48.31-.89.1-.41-.2-1.73-.62-3.3-1.98-1.22-1.05-2.04-2.35-2.28-2.75-.24-.4-.03-.62.18-.82.19-.18.41-.48.62-.72.2-.24.27-.41.41-.69.14-.27.07-.51-.03-.72-.1-.2-.92-2.19-1.27-3-.34-.81-.68-.7-.92-.71h-.78c-.27 0-.72.1-1.1.51-.38.41-1.44 1.39-1.44 3.4 0 2.01 1.48 3.96 1.68 4.23.2.27 2.9 4.56 7.14 6.21 1.01.39 1.8.62 2.42.79 1.02.27 1.95.23 2.68.14.82-.1 2.42-.97 2.76-1.91.34-.93.34-1.73.24-1.91z"/>
</svg>
